<?xml version="1.0" encoding="utf-8"?>
<!-- Generator: Adobe Illustrator 16.0.0, SVG Export Plug-In . SVG Version: 6.00 Build 0)  -->
<!DOCTYPE svg PUBLIC "-//W3C//DTD SVG 1.1//EN" "http://www.w3.org/Graphics/SVG/1.1/DTD/svg11.dtd">
<svg version="1.1" id="Layer_1" xmlns="http://www.w3.org/2000/svg" xmlns:xlink="http://www.w3.org/1999/xlink" x="0px" y="0px"
	 width="745.08px" height="627.812px" viewBox="0 0 745.08 627.812" enable-background="new 0 0 745.08 627.812"
	 xml:space="preserve">
<symbol  id="bitdrop" viewBox="-62.868 -94.086 125.738 188.552">
	<path fill="#BDE6F4" stroke="#6D9ED4" stroke-width="1.6108" stroke-miterlimit="10" d="M62.064-27.462
		C62.064-63.812,34.276-93.28,0-93.28s-62.063,29.468-62.063,65.818C-62.063,8.888,0,93.108,0,93.108S62.064,8.888,62.064-27.462z"
		/>
	<g>
		<path fill="none" d="M-59.163-24.65c0.358,0.597,0.634,1.336,0.826,2.224c0.193,0.886,0.291,1.911,0.291,3.079
			c0,0.312-0.012,0.62-0.036,0.929c-0.022,0.308-0.048,0.609-0.075,0.902l-3.04-2.259c-0.454-2.347-0.753-4.583-0.863-6.673
			c0.583,0.018,1.117,0.161,1.596,0.448C-59.954-25.698-59.521-25.248-59.163-24.65z"/>
		<path fill="none" d="M-31.15,41.241c0.625,0,1.192,0.151,1.703,0.454c0.509,0.304,0.942,0.753,1.302,1.35
			c0.358,0.597,0.634,1.339,0.825,2.224c0.194,0.887,0.29,1.912,0.29,3.079c0,0.312-0.012,0.622-0.034,0.931
			c-0.022,0.307-0.048,0.607-0.076,0.901l-2.137-1.589c-1.331-2.164-2.663-4.365-3.992-6.596c0.25-0.207,0.517-0.387,0.82-0.514
			C-32.069,41.321-31.636,41.241-31.15,41.241z"/>
		<path fill="none" d="M-47.358,16.514c-1.472-2.924-2.874-5.828-4.189-8.694h4.189V16.514z"/>
		<path fill="none" d="M-59.135-13.949c-0.14,0.257-0.307,0.479-0.483,0.692c-0.329-1.147-0.63-2.278-0.899-3.383l1.906,1.409
			C-58.75-14.761-58.923-14.336-59.135-13.949z"/>
		<path fill="none" d="M26.819,12.984l7.617,5.633c-0.137,0.468-0.312,0.896-0.522,1.281c-0.211,0.385-0.464,0.718-0.759,0.998
			c-0.293,0.28-0.629,0.499-1.004,0.654c-0.377,0.156-0.8,0.234-1.268,0.234c-0.625,0-1.191-0.151-1.702-0.454
			c-0.509-0.304-0.942-0.757-1.3-1.356c-0.357-0.603-0.634-1.347-0.827-2.231c-0.192-0.887-0.29-1.913-0.29-3.079
			c0-0.284,0.002-0.568,0.009-0.854C26.777,13.526,26.792,13.25,26.819,12.984z"/>
		<path fill="none" d="M43.306-58.348c0.211-0.403,0.467-0.75,0.766-1.039c0.297-0.288,0.638-0.514,1.02-0.675
			c0.381-0.161,0.813-0.241,1.3-0.241c0.626,0,1.192,0.152,1.702,0.453c0.51,0.306,0.942,0.754,1.303,1.35
			c0.356,0.598,0.631,1.34,0.825,2.226c0.191,0.885,0.289,1.912,0.289,3.077c0,0.313-0.012,0.624-0.035,0.932
			c-0.021,0.305-0.047,0.606-0.076,0.901l-7.614-5.661C42.921-57.503,43.096-57.943,43.306-58.348z"/>
		<path fill="none" d="M42.328-54.711l7.617,5.633c-0.137,0.468-0.312,0.896-0.522,1.281c-0.213,0.385-0.465,0.718-0.76,0.998
			c-0.293,0.279-0.628,0.497-1.005,0.654c-0.377,0.156-0.798,0.233-1.268,0.233c-0.623,0-1.19-0.151-1.7-0.454
			c-0.509-0.303-0.943-0.755-1.302-1.354c-0.358-0.604-0.632-1.347-0.825-2.233c-0.194-0.888-0.29-1.911-0.29-3.078
			c0-0.284,0.002-0.57,0.007-0.854C42.284-54.17,42.301-54.444,42.328-54.711z"/>
		<path fill="none" d="M27.798,9.348c0.213-0.403,0.466-0.75,0.766-1.039c0.298-0.289,0.637-0.515,1.02-0.674
			c0.38-0.162,0.814-0.242,1.301-0.242c0.623,0,1.19,0.151,1.701,0.455c0.509,0.302,0.943,0.753,1.302,1.35
			c0.357,0.596,0.634,1.338,0.825,2.223c0.193,0.887,0.289,1.913,0.289,3.08c0,0.312-0.01,0.621-0.033,0.93
			c-0.023,0.307-0.049,0.608-0.076,0.901l-7.616-5.661C27.413,10.193,27.587,9.752,27.798,9.348z"/>
		<path fill="none" d="M42.328-20.863l7.617,5.633c-0.137,0.47-0.312,0.895-0.522,1.281c-0.213,0.386-0.465,0.718-0.76,0.997
			c-0.293,0.281-0.628,0.5-1.005,0.654c-0.377,0.157-0.798,0.236-1.268,0.236c-0.623,0-1.19-0.152-1.7-0.456
			c-0.509-0.303-0.943-0.755-1.302-1.356c-0.358-0.603-0.632-1.346-0.825-2.229c-0.194-0.888-0.29-1.915-0.29-3.079
			c0-0.285,0.002-0.569,0.007-0.854C42.284-20.322,42.301-20.598,42.328-20.863z"/>
		<path fill="none" d="M-28.118-47.797c-0.212,0.385-0.464,0.718-0.757,0.998c-0.295,0.279-0.631,0.497-1.007,0.654
			c-0.375,0.156-0.798,0.233-1.268,0.233c-0.624,0-1.19-0.151-1.701-0.454c-0.509-0.303-0.942-0.755-1.3-1.354
			c-0.359-0.604-0.634-1.347-0.827-2.233c-0.193-0.888-0.29-1.911-0.29-3.078c0-0.284,0.001-0.57,0.007-0.854
			c0.003-0.284,0.021-0.559,0.048-0.825l7.617,5.633C-27.733-48.61-27.908-48.183-28.118-47.797z"/>
		<path fill="none" d="M43.306-24.499c0.211-0.404,0.467-0.75,0.766-1.042c0.297-0.287,0.638-0.514,1.02-0.673
			c0.381-0.162,0.813-0.241,1.3-0.241c0.626,0,1.192,0.15,1.702,0.455c0.51,0.302,0.942,0.752,1.303,1.35
			c0.356,0.597,0.631,1.336,0.825,2.224c0.191,0.886,0.289,1.911,0.289,3.079c0,0.312-0.012,0.62-0.035,0.929
			c-0.021,0.308-0.047,0.609-0.076,0.902l-7.614-5.66C42.921-23.655,43.096-24.095,43.306-24.499z"/>
		<path fill="none" d="M-42.649-17.517l-7.616-5.66c0.137-0.479,0.312-0.918,0.522-1.322c0.212-0.404,0.466-0.75,0.766-1.042
			c0.298-0.287,0.637-0.514,1.019-0.673c0.38-0.162,0.815-0.241,1.302-0.241c0.623,0,1.19,0.15,1.7,0.455
			c0.509,0.302,0.944,0.752,1.302,1.35c0.358,0.597,0.634,1.336,0.826,2.224c0.193,0.886,0.29,1.911,0.29,3.079
			c0,0.312-0.01,0.62-0.034,0.929C-42.596-18.111-42.621-17.81-42.649-17.517z"/>
		<path fill="none" d="M27.798-24.499c0.213-0.404,0.466-0.75,0.766-1.042c0.298-0.287,0.637-0.514,1.02-0.673
			c0.38-0.162,0.814-0.241,1.301-0.241c0.623,0,1.19,0.15,1.701,0.455c0.509,0.302,0.943,0.752,1.302,1.35
			c0.357,0.597,0.634,1.336,0.825,2.224c0.193,0.886,0.289,1.911,0.289,3.079c0,0.312-0.01,0.62-0.033,0.929
			c-0.023,0.308-0.049,0.609-0.076,0.902l-7.616-5.66C27.413-23.655,27.587-24.095,27.798-24.499z"/>
		<path fill="none" d="M-27.141-51.364l-7.616-5.661c0.137-0.478,0.312-0.918,0.522-1.322c0.211-0.403,0.466-0.75,0.766-1.039
			c0.298-0.288,0.637-0.514,1.019-0.675c0.38-0.161,0.813-0.241,1.3-0.241c0.625,0,1.192,0.152,1.703,0.453
			c0.509,0.306,0.942,0.754,1.302,1.35c0.358,0.598,0.634,1.34,0.825,2.226c0.194,0.885,0.29,1.912,0.29,3.077
			c0,0.313-0.012,0.624-0.034,0.932C-27.087-51.961-27.113-51.659-27.141-51.364z"/>
		<path fill="none" d="M26.819-54.711l7.617,5.633c-0.137,0.468-0.312,0.896-0.522,1.281c-0.211,0.385-0.464,0.718-0.759,0.998
			c-0.293,0.279-0.629,0.497-1.004,0.654c-0.377,0.156-0.8,0.233-1.268,0.233c-0.625,0-1.191-0.151-1.702-0.454
			c-0.509-0.303-0.942-0.755-1.3-1.354c-0.357-0.604-0.634-1.347-0.827-2.233c-0.192-0.888-0.29-1.911-0.29-3.078
			c0-0.284,0.002-0.57,0.009-0.854C26.777-54.17,26.792-54.444,26.819-54.711z"/>
		<path fill="none" d="M2.897,19.898c-0.21,0.385-0.464,0.718-0.757,0.998c-0.292,0.28-0.628,0.499-1.005,0.654
			c-0.377,0.156-0.798,0.234-1.268,0.234c-0.624,0-1.19-0.151-1.701-0.454c-0.509-0.304-0.944-0.757-1.302-1.356
			c-0.358-0.603-0.634-1.347-0.827-2.231c-0.192-0.887-0.288-1.913-0.288-3.079c0-0.284,0.001-0.568,0.007-0.854
			c0.003-0.284,0.021-0.561,0.048-0.826l7.616,5.633C3.282,19.085,3.107,19.513,2.897,19.898z"/>
		<path fill="none" d="M3.875,16.331l-7.616-5.661c0.139-0.477,0.313-0.918,0.524-1.322c0.21-0.403,0.466-0.75,0.764-1.039
			c0.298-0.289,0.639-0.515,1.019-0.674c0.38-0.162,0.815-0.242,1.302-0.242c0.625,0,1.192,0.151,1.702,0.455
			c0.507,0.302,0.942,0.753,1.3,1.35c0.358,0.596,0.633,1.338,0.827,2.223c0.192,0.887,0.288,1.913,0.288,3.08
			c0,0.312-0.01,0.621-0.034,0.93C3.928,15.736,3.902,16.038,3.875,16.331z"/>
		<path fill="none" d="M2.897,53.746c-0.21,0.386-0.464,0.719-0.757,0.999c-0.292,0.28-0.628,0.498-1.005,0.654
			c-0.377,0.156-0.798,0.234-1.268,0.234c-0.624,0-1.19-0.152-1.701-0.455c-0.509-0.303-0.944-0.756-1.302-1.356
			s-0.634-1.345-0.827-2.231c-0.192-0.886-0.288-1.912-0.288-3.078c0-0.285,0.001-0.569,0.007-0.854
			c0.003-0.285,0.021-0.561,0.048-0.826l7.616,5.633C3.282,52.935,3.107,53.36,2.897,53.746z"/>
		<path fill="none" d="M3.875-17.517l-7.616-5.66c0.139-0.479,0.313-0.918,0.524-1.322c0.21-0.404,0.466-0.75,0.764-1.042
			c0.298-0.287,0.639-0.514,1.019-0.673c0.38-0.162,0.815-0.241,1.302-0.241c0.625,0,1.192,0.15,1.702,0.455
			c0.507,0.302,0.942,0.752,1.3,1.35c0.358,0.597,0.633,1.336,0.827,2.224c0.192,0.886,0.288,1.911,0.288,3.079
			c0,0.312-0.01,0.62-0.034,0.929C3.928-18.111,3.902-17.81,3.875-17.517z"/>
		<path fill="none" d="M27.798-58.348c0.213-0.403,0.466-0.75,0.766-1.039c0.298-0.288,0.637-0.514,1.02-0.675
			c0.38-0.161,0.814-0.241,1.301-0.241c0.623,0,1.19,0.152,1.701,0.453c0.509,0.306,0.943,0.754,1.302,1.35
			c0.357,0.598,0.634,1.34,0.825,2.226c0.193,0.885,0.289,1.912,0.289,3.077c0,0.313-0.01,0.624-0.033,0.932
			c-0.023,0.305-0.049,0.606-0.076,0.901l-7.616-5.661C27.413-57.503,27.587-57.943,27.798-58.348z"/>
		<path fill="none" d="M26.819-20.863l7.617,5.633c-0.137,0.47-0.312,0.895-0.522,1.281c-0.211,0.386-0.464,0.718-0.759,0.997
			c-0.293,0.281-0.629,0.5-1.004,0.654c-0.377,0.157-0.8,0.236-1.268,0.236c-0.625,0-1.191-0.152-1.702-0.456
			c-0.509-0.303-0.942-0.755-1.3-1.356c-0.357-0.603-0.634-1.346-0.827-2.229c-0.192-0.888-0.29-1.915-0.29-3.079
			c0-0.285,0.002-0.569,0.009-0.854C26.777-20.322,26.792-20.598,26.819-20.863z"/>
		<path fill="none" d="M2.897-13.949c-0.21,0.386-0.464,0.718-0.757,0.997c-0.292,0.281-0.628,0.5-1.005,0.654
			c-0.377,0.157-0.798,0.236-1.268,0.236c-0.624,0-1.19-0.152-1.701-0.456c-0.509-0.303-0.944-0.755-1.302-1.356
			c-0.358-0.603-0.634-1.346-0.827-2.229c-0.192-0.888-0.288-1.915-0.288-3.079c0-0.285,0.001-0.569,0.007-0.854
			c0.003-0.286,0.021-0.562,0.048-0.827l7.616,5.633C3.282-14.761,3.107-14.336,2.897-13.949z"/>
		<path fill="none" d="M-43.627-13.949c-0.21,0.386-0.464,0.718-0.757,0.997c-0.294,0.281-0.628,0.5-1.005,0.654
			c-0.376,0.157-0.8,0.236-1.267,0.236c-0.625,0-1.192-0.152-1.703-0.456c-0.507-0.303-0.942-0.755-1.3-1.356
			c-0.358-0.603-0.634-1.346-0.828-2.229c-0.191-0.888-0.289-1.915-0.289-3.079c0-0.285,0.001-0.569,0.008-0.854
			c0.003-0.286,0.021-0.562,0.048-0.827l7.614,5.633C-43.241-14.761-43.416-14.336-43.627-13.949z"/>
		<path fill="none" d="M-13.369-80.648c-0.292,0.281-0.628,0.5-1.005,0.654c-0.377,0.157-0.798,0.236-1.267,0.236
			c-0.624,0-1.19-0.15-1.701-0.455c-0.509-0.302-0.944-0.754-1.302-1.356c-0.358-0.604-0.634-1.347-0.826-2.23
			c-0.193-0.887-0.29-1.911-0.29-3.079c0-0.284,0.002-0.568,0.007-0.854c0.004-0.284,0.021-0.562,0.048-0.825l7.617,5.632
			c-0.137,0.469-0.312,0.894-0.524,1.28C-12.822-81.258-13.074-80.926-13.369-80.648z"/>
		<path fill="none" d="M-0.297,91.368h0.747c-0.373,0.514-0.58,0.795-0.58,0.795s-0.3-0.405-0.839-1.148L-0.297,91.368z"/>
		<path fill="none" d="M19.493-87.044c0,0.312-0.011,0.62-0.034,0.929c-0.022,0.309-0.048,0.609-0.075,0.904l-7.617-5.662
			c0.137-0.477,0.312-0.918,0.524-1.322c0.072-0.141,0.158-0.264,0.243-0.391c2.22,0.486,4.39,1.113,6.516,1.847
			c0.057,0.195,0.107,0.4,0.154,0.616C19.397-89.235,19.493-88.212,19.493-87.044z"/>
		<path fill="none" d="M-28.118-81.646c-0.212,0.388-0.464,0.72-0.757,0.997c-0.295,0.281-0.631,0.5-1.007,0.654
			c-0.375,0.157-0.798,0.236-1.268,0.236c-0.624,0-1.19-0.15-1.701-0.455c-0.509-0.302-0.942-0.754-1.3-1.356
			c-0.212-0.356-0.387-0.778-0.541-1.233c1.25-0.895,2.542-1.723,3.854-2.521l3.242,2.398
			C-27.733-82.457-27.908-82.032-28.118-81.646z"/>
		<path fill="none" d="M17.648-80.648c-0.295,0.281-0.63,0.5-1.005,0.654c-0.377,0.157-0.8,0.236-1.268,0.236
			c-0.625,0-1.19-0.15-1.701-0.455c-0.51-0.302-0.943-0.754-1.302-1.356c-0.358-0.604-0.633-1.347-0.827-2.23
			c-0.191-0.887-0.289-1.911-0.289-3.079c0-0.284,0.003-0.568,0.008-0.854c0.003-0.284,0.019-0.562,0.048-0.825l7.617,5.632
			c-0.139,0.469-0.313,0.894-0.524,1.28C18.195-81.258,17.941-80.926,17.648-80.648z"/>
		<path fill="none" d="M-27.065-86.115c-0.022,0.309-0.048,0.609-0.076,0.904l-1.707-1.271c0.596-0.332,1.19-0.665,1.798-0.977
			c0.004,0.141,0.019,0.268,0.019,0.414C-27.031-86.731-27.043-86.424-27.065-86.115z"/>
		<path fill="none" d="M-11.812-90.123c0.193,0.888,0.289,1.911,0.289,3.079c0,0.312-0.012,0.62-0.036,0.929
			c-0.022,0.309-0.046,0.609-0.074,0.904l-7.519-5.587c2.072-0.709,4.189-1.312,6.351-1.788c0.055,0.079,0.109,0.154,0.161,0.24
			C-12.279-91.75-12.005-91.01-11.812-90.123z"/>
		<path fill="none" d="M3.875,50.18l-7.616-5.661c0.139-0.478,0.313-0.918,0.524-1.322c0.21-0.404,0.466-0.75,0.764-1.04
			c0.298-0.288,0.639-0.514,1.019-0.675c0.38-0.16,0.815-0.24,1.302-0.24c0.625,0,1.192,0.151,1.702,0.454
			c0.507,0.304,0.942,0.753,1.3,1.35s0.633,1.339,0.827,2.224c0.192,0.887,0.288,1.912,0.288,3.079c0,0.312-0.01,0.622-0.034,0.931
			C3.928,49.585,3.902,49.886,3.875,50.18z"/>
		<path fill="none" d="M5.845,75.515v-2.23H-5.463v2.23h4.628v13.141l-2.992-1.625c-1.502-2.115-3.403-4.82-5.595-8.005
			c-0.035-0.168-0.05-0.353-0.089-0.515c-0.275-1.134-0.693-2.106-1.253-2.919c-0.56-0.813-1.255-1.442-2.086-1.888
			c-0.094-0.05-0.195-0.086-0.291-0.13c-3.773-5.582-8.087-12.13-12.558-19.23c0.252-0.527,0.468-1.111,0.639-1.769
			c0.303-1.165,0.454-2.547,0.454-4.146c0-1.377-0.137-2.632-0.413-3.767c-0.276-1.133-0.694-2.107-1.253-2.92
			c-0.561-0.812-1.256-1.441-2.086-1.887c-0.831-0.444-1.807-0.667-2.927-0.667c-0.964,0-1.841,0.181-2.631,0.543
			c-0.182,0.085-0.356,0.181-0.524,0.284c-3.544-6.002-7.022-12.18-10.259-18.337V7.819h4.021v-2.23h-11.307v1.264
			c-2.792-6.162-5.162-12.129-6.906-17.681c0.576-0.352,1.084-0.815,1.521-1.408c0.559-0.755,0.99-1.718,1.293-2.884
			c0.303-1.165,0.456-2.549,0.456-4.146c0-1.377-0.139-2.634-0.413-3.768c-0.276-1.134-0.694-2.106-1.254-2.92
			c-0.56-0.811-1.255-1.44-2.088-1.886c-0.779-0.418-1.692-0.634-2.727-0.658c0.021-5.35,0.649-10.55,1.806-15.527h0.089v-0.407
			c3.597-15.051,12.093-28.026,23.584-36.919c0.181,0.387,0.38,0.757,0.608,1.09c0.555,0.812,1.25,1.441,2.086,1.887
			s1.809,0.668,2.92,0.668c0.964,0,1.841-0.182,2.63-0.545c0.79-0.362,1.464-0.921,2.024-1.682c0.56-0.753,0.992-1.716,1.295-2.884
			c0.303-1.165,0.454-2.549,0.454-4.145c0-0.569-0.038-1.104-0.085-1.631c0.891-0.407,1.792-0.791,2.703-1.157
			c-0.123,0.846-0.192,1.767-0.192,2.788c0,1.377,0.139,2.634,0.419,3.774c0.279,1.138,0.697,2.113,1.252,2.926
			c0.557,0.812,1.252,1.441,2.088,1.887s1.809,0.668,2.92,0.668c0.964,0,1.841-0.182,2.63-0.545c0.79-0.362,1.465-0.921,2.024-1.682
			c0.561-0.753,0.992-1.716,1.295-2.884c0.303-1.165,0.454-2.549,0.454-4.145c0-1.377-0.137-2.635-0.413-3.769
			c-0.212-0.87-0.509-1.641-0.887-2.322c1.692-0.298,3.408-0.521,5.143-0.671h4.42v13.14l-4.311-2.343l-0.882,2.038l5.73,3.018
			h2.121v-15.853h3.168c1.699,0.147,3.379,0.362,5.037,0.65c-0.296,0.575-0.548,1.223-0.741,1.966
			c-0.302,1.165-0.454,2.549-0.454,4.146c0,1.377,0.141,2.634,0.421,3.774c0.279,1.138,0.697,2.113,1.252,2.926
			c0.557,0.812,1.252,1.441,2.086,1.887c0.835,0.445,1.81,0.668,2.92,0.668c0.964,0,1.841-0.182,2.631-0.545
			c0.789-0.362,1.464-0.921,2.024-1.682c0.56-0.753,0.991-1.716,1.294-2.884c0.304-1.165,0.456-2.549,0.456-4.145
			c0-1.011-0.099-1.933-0.248-2.81c2.952,1.176,5.794,2.59,8.512,4.207v4.98l-4.312-2.343l-0.88,2.038l5.729,3.018h2.122v-6.012
			c12.325,8.231,21.732,20.926,26.173,35.96l-2.127-1.156l-0.881,2.038l3.785,1.993c1.334,5.359,2.053,10.984,2.053,16.786H56.57
			v2.233h4.627v4.807c-0.395,2.35-0.967,4.833-1.688,7.412l-2.623-1.422l-0.881,2.038l2.879,1.516
			c-1.648,5.416-3.906,11.237-6.592,17.266H41.062v2.23h4.627v11.453c-0.227,0.438-0.452,0.877-0.68,1.317l-3.631-1.973
			l-0.881,2.039l3.506,1.845c-3.009,5.687-6.217,11.383-9.482,16.936h-8.967v2.231h4.628v5.015
			c-1.257,2.061-2.511,4.094-3.756,6.084l-0.557-0.301l-0.88,2.038l0.26,0.138c-4.326,6.863-8.503,13.203-12.175,18.643h-3.028v2.23
			h1.516c-4.267,6.271-7.719,11.142-9.738,13.951V75.515H5.845z M-31.314,23.672h2.121V7.819h4.023v-2.23h-11.309v2.23h4.627v13.139
			l-4.309-2.341l-0.882,2.039L-31.314,23.672z M-31.314-10.176h2.121v-15.852h4.023v-2.233h-11.309v2.233h4.627v13.139l-4.309-2.342
			l-0.882,2.038L-31.314-10.176z M-40.679-62.106h-11.307v2.229h4.628v13.14l-4.311-2.341l-0.882,2.038l5.729,3.016h2.122v-15.853
			h4.021V-62.106z M-40.528-23.033c-0.274-1.134-0.692-2.106-1.254-2.92c-0.558-0.811-1.254-1.44-2.086-1.886
			c-0.831-0.445-1.805-0.668-2.927-0.668c-0.965,0-1.841,0.182-2.629,0.543c-0.791,0.363-1.466,0.921-2.026,1.673
			c-0.56,0.754-0.992,1.713-1.293,2.879c-0.305,1.167-0.456,2.549-0.456,4.146c0,1.377,0.141,2.635,0.421,3.773
			c0.278,1.139,0.697,2.115,1.252,2.927c0.556,0.812,1.252,1.442,2.087,1.888c0.834,0.445,1.809,0.668,2.918,0.668
			c0.964,0,1.841-0.182,2.631-0.545s1.464-0.921,2.024-1.682c0.56-0.755,0.992-1.718,1.295-2.884
			c0.303-1.165,0.455-2.549,0.455-4.146C-40.114-20.643-40.253-21.899-40.528-23.033z M-25.02-56.881
			c-0.276-1.134-0.694-2.105-1.253-2.921c-0.561-0.812-1.256-1.441-2.086-1.885c-0.831-0.445-1.807-0.668-2.927-0.668
			c-0.964,0-1.841,0.181-2.631,0.543s-1.464,0.921-2.024,1.675c-0.56,0.752-0.992,1.712-1.295,2.877
			c-0.303,1.166-0.454,2.549-0.454,4.145c0,1.379,0.139,2.638,0.419,3.775c0.279,1.139,0.699,2.115,1.254,2.925
			c0.555,0.815,1.25,1.442,2.086,1.89c0.836,0.443,1.809,0.666,2.92,0.666c0.964,0,1.841-0.182,2.63-0.545
			c0.79-0.361,1.464-0.921,2.024-1.679c0.56-0.757,0.992-1.719,1.295-2.884c0.303-1.168,0.454-2.549,0.454-4.148
			C-24.607-54.492-24.744-55.746-25.02-56.881z M-9.664-62.106h-11.307v2.229h4.627v13.14l-4.311-2.341l-0.88,2.038l5.729,3.016
			h2.12v-15.853h4.021V-62.106z M-9.664-28.261h-11.307v2.233h4.627v13.139l-4.311-2.342l-0.88,2.038l5.729,3.017h2.12v-15.852
			h4.021V-28.261z M-9.664,5.589h-11.307v2.23h4.627v13.139l-4.311-2.341l-0.88,2.039l5.729,3.016h2.12V7.819h4.021V5.589z
			 M-9.664,39.437h-11.307v2.231h4.627v13.14l-4.311-2.342l-0.88,2.038l5.729,3.017h2.12V41.668h4.021V39.437z M40.27-15.492
			c0.279,1.139,0.698,2.115,1.254,2.927c0.555,0.812,1.25,1.442,2.086,1.888s1.809,0.668,2.92,0.668
			c0.964,0,1.841-0.182,2.631-0.545c0.791-0.363,1.464-0.921,2.025-1.682c0.561-0.755,0.992-1.718,1.295-2.884
			c0.303-1.165,0.453-2.549,0.453-4.146c0-1.377-0.137-2.634-0.412-3.768s-0.693-2.106-1.254-2.92
			c-0.561-0.811-1.256-1.44-2.088-1.886c-0.828-0.445-1.805-0.668-2.925-0.668c-0.964,0-1.841,0.182-2.631,0.543
			c-0.79,0.363-1.464,0.921-2.024,1.673c-0.561,0.754-0.992,1.713-1.295,2.879c-0.303,1.167-0.453,2.549-0.453,4.146
			C39.851-17.889,39.989-16.631,40.27-15.492z M40.27-49.34c0.279,1.139,0.698,2.115,1.254,2.925c0.555,0.815,1.25,1.442,2.086,1.89
			c0.836,0.443,1.809,0.666,2.92,0.666c0.964,0,1.841-0.182,2.631-0.545c0.791-0.361,1.464-0.921,2.025-1.679
			c0.561-0.757,0.992-1.719,1.295-2.884c0.303-1.168,0.453-2.549,0.453-4.148c0-1.377-0.137-2.631-0.412-3.766
			c-0.275-1.134-0.693-2.105-1.254-2.921c-0.561-0.812-1.256-1.441-2.088-1.885c-0.828-0.445-1.805-0.668-2.925-0.668
			c-0.964,0-1.841,0.181-2.631,0.543s-1.464,0.921-2.024,1.675c-0.561,0.752-0.992,1.712-1.295,2.877
			c-0.303,1.166-0.453,2.549-0.453,4.145C39.851-51.736,39.989-50.478,40.27-49.34z M24.763,18.355
			c0.277,1.139,0.697,2.114,1.252,2.927c0.557,0.813,1.252,1.441,2.086,1.887c0.836,0.445,1.809,0.668,2.92,0.668
			c0.965,0,1.842-0.182,2.631-0.544c0.79-0.363,1.465-0.922,2.025-1.681c0.56-0.757,0.991-1.719,1.294-2.885
			c0.304-1.166,0.454-2.548,0.454-4.146c0-1.377-0.137-2.634-0.412-3.768c-0.276-1.134-0.694-2.106-1.254-2.92
			c-0.561-0.812-1.254-1.441-2.086-1.886c-0.831-0.445-1.808-0.669-2.928-0.669c-0.964,0-1.841,0.183-2.631,0.544
			c-0.789,0.363-1.464,0.921-2.023,1.674c-0.561,0.753-0.992,1.712-1.295,2.879c-0.304,1.166-0.454,2.548-0.454,4.146
			C24.342,15.959,24.481,17.217,24.763,18.355z M24.763-15.492c0.277,1.139,0.697,2.115,1.252,2.927
			c0.557,0.812,1.252,1.442,2.086,1.888c0.836,0.445,1.809,0.668,2.92,0.668c0.965,0,1.842-0.182,2.631-0.545
			c0.79-0.363,1.465-0.921,2.025-1.682c0.56-0.755,0.991-1.718,1.294-2.884c0.304-1.165,0.454-2.549,0.454-4.146
			c0-1.377-0.137-2.634-0.412-3.768c-0.276-1.134-0.694-2.106-1.254-2.92c-0.561-0.811-1.254-1.44-2.086-1.886
			c-0.831-0.445-1.808-0.668-2.928-0.668c-0.964,0-1.841,0.182-2.631,0.543c-0.789,0.363-1.464,0.921-2.023,1.673
			c-0.561,0.754-0.992,1.713-1.295,2.879c-0.304,1.167-0.454,2.549-0.454,4.146C24.342-17.889,24.481-16.631,24.763-15.492z
			 M24.763-49.34c0.277,1.139,0.697,2.115,1.252,2.925c0.557,0.815,1.252,1.442,2.086,1.89c0.836,0.443,1.809,0.666,2.92,0.666
			c0.965,0,1.842-0.182,2.631-0.545c0.79-0.361,1.465-0.921,2.025-1.679c0.56-0.757,0.991-1.719,1.294-2.884
			c0.304-1.168,0.454-2.549,0.454-4.148c0-1.377-0.137-2.631-0.412-3.766c-0.276-1.134-0.694-2.105-1.254-2.921
			c-0.561-0.812-1.254-1.441-2.086-1.885c-0.831-0.445-1.808-0.668-2.928-0.668c-0.964,0-1.841,0.181-2.631,0.543
			c-0.789,0.362-1.464,0.921-2.023,1.675c-0.561,0.752-0.992,1.712-1.295,2.877c-0.304,1.166-0.454,2.549-0.454,4.145
			C24.342-51.736,24.481-50.478,24.763-49.34z M15.209,57.521h2.122V41.668h4.021v-2.231H10.046v2.231h4.627v13.14l-4.311-2.342
			L9.48,54.504L15.209,57.521z M15.209,23.672h2.122V7.819h4.021v-2.23H10.046v2.23h4.627v13.139l-4.311-2.341L9.48,20.656
			L15.209,23.672z M15.209-10.176h2.122v-15.852h4.021v-2.233H10.046v2.233h4.627v13.139l-4.311-2.342L9.48-13.192L15.209-10.176z
			 M15.209-44.024h2.122v-15.853h4.021v-2.229H10.046v2.229h4.627v13.14l-4.311-2.341L9.48-47.04L15.209-44.024z M5.845-62.106
			H-5.463v2.229h4.628v13.14l-4.311-2.341l-0.882,2.038l5.73,3.016h2.121v-15.853h4.021V-62.106z M5.997-23.033
			c-0.276-1.134-0.694-2.106-1.254-2.92c-0.56-0.811-1.255-1.44-2.088-1.886c-0.829-0.445-1.805-0.668-2.925-0.668
			c-0.964,0-1.841,0.182-2.63,0.543c-0.79,0.363-1.464,0.921-2.024,1.673c-0.56,0.754-0.992,1.713-1.295,2.879
			c-0.303,1.167-0.456,2.549-0.456,4.146c0,1.377,0.14,2.635,0.421,3.773c0.279,1.139,0.697,2.115,1.252,2.927
			c0.557,0.812,1.252,1.442,2.088,1.888c0.835,0.445,1.809,0.668,2.918,0.668c0.966,0,1.843-0.182,2.631-0.545
			c0.792-0.363,1.466-0.921,2.024-1.682c0.562-0.755,0.994-1.718,1.295-2.884c0.303-1.165,0.456-2.549,0.456-4.146
			C6.41-20.643,6.272-21.899,5.997-23.033z M5.997,10.814c-0.276-1.134-0.694-2.106-1.254-2.92c-0.56-0.812-1.255-1.441-2.088-1.886
			C1.827,5.563,0.85,5.34-0.27,5.34c-0.964,0-1.841,0.183-2.63,0.544c-0.79,0.363-1.464,0.921-2.024,1.674S-5.917,9.27-6.22,10.437
			c-0.303,1.166-0.456,2.548-0.456,4.146c0,1.377,0.14,2.635,0.421,3.773c0.279,1.139,0.697,2.114,1.252,2.927
			c0.557,0.813,1.252,1.441,2.088,1.887c0.835,0.445,1.809,0.668,2.918,0.668c0.966,0,1.843-0.182,2.631-0.544
			c0.792-0.363,1.466-0.922,2.024-1.681c0.562-0.757,0.994-1.719,1.295-2.885c0.303-1.166,0.456-2.548,0.456-4.146
			C6.41,13.205,6.272,11.948,5.997,10.814z M6.41,48.43c0-1.377-0.137-2.632-0.413-3.767c-0.276-1.133-0.694-2.107-1.254-2.92
			s-1.255-1.441-2.088-1.887c-0.829-0.444-1.805-0.667-2.925-0.667c-0.964,0-1.841,0.181-2.63,0.543s-1.464,0.921-2.024,1.674
			s-0.992,1.712-1.295,2.878s-0.456,2.549-0.456,4.146c0,1.378,0.14,2.636,0.421,3.774c0.279,1.139,0.697,2.114,1.252,2.927
			c0.557,0.812,1.252,1.441,2.088,1.887c0.835,0.445,1.809,0.668,2.918,0.668c0.966,0,1.843-0.182,2.631-0.544
			c0.792-0.363,1.466-0.924,2.024-1.68c0.562-0.758,0.994-1.721,1.295-2.887C6.257,51.41,6.41,50.028,6.41,48.43z"/>
		<path fill="none" d="M33.2,41.668c-0.121,0.202-0.24,0.403-0.36,0.605v-0.605H33.2z"/>
		<path fill="none" d="M51.283,7.819c-0.936,2.041-1.917,4.101-2.936,6.174V7.819H51.283z"/>
		<path d="M-10.765,75.592c0.56,0.812,0.978,1.785,1.253,2.919c0.04,0.162,0.055,0.347,0.089,0.515
			c-1.165-1.69-2.408-3.511-3.72-5.451c0.096,0.044,0.197,0.08,0.291,0.13C-12.021,74.149-11.325,74.778-10.765,75.592z"/>
		<path d="M-0.97,91.015c-0.632-0.871-1.605-2.222-2.857-3.984l2.992,1.625V75.515h-4.628v-2.23H5.845v2.23H1.823v13.951
			c-0.586,0.814-1.047,1.45-1.374,1.902h-0.747L-0.97,91.015z"/>
		<path d="M10.046,73.284h3.028c-0.514,0.764-1.017,1.505-1.512,2.23h-1.516V73.284z"/>
		<path d="M-31.287,39.189c1.12,0,2.096,0.223,2.927,0.667c0.831,0.445,1.526,1.074,2.086,1.887c0.56,0.812,0.978,1.787,1.253,2.92
			c0.276,1.135,0.413,2.39,0.413,3.767c0,1.599-0.15,2.98-0.454,4.146c-0.171,0.657-0.387,1.241-0.639,1.769
			c-1.183-1.882-2.379-3.802-3.578-5.753l2.137,1.589c0.028-0.294,0.053-0.595,0.076-0.901c0.022-0.309,0.034-0.619,0.034-0.931
			c0-1.167-0.096-2.192-0.29-3.079c-0.191-0.885-0.467-1.627-0.825-2.224c-0.36-0.597-0.793-1.046-1.302-1.35
			c-0.511-0.303-1.077-0.454-1.703-0.454c-0.486,0-0.919,0.08-1.3,0.24c-0.303,0.127-0.57,0.307-0.82,0.514
			c-0.392-0.656-0.783-1.316-1.171-1.979c0.168-0.104,0.342-0.199,0.524-0.284C-33.128,39.37-32.251,39.189-31.287,39.189z"/>
		<polygon points="-13.686,57.521 -15.806,57.521 -21.535,54.504 -20.654,52.466 -16.344,54.808 -16.344,41.668 -20.971,41.668 
			-20.971,39.437 -9.664,39.437 -9.664,41.668 -13.686,41.668 		"/>
		<path d="M2.635,57.142c-0.788,0.362-1.665,0.544-2.631,0.544c-1.109,0-2.083-0.223-2.918-0.668
			c-0.836-0.445-1.531-1.074-2.088-1.887c-0.555-0.812-0.973-1.788-1.252-2.927c-0.281-1.139-0.421-2.396-0.421-3.774
			c0-1.597,0.152-2.979,0.456-4.146s0.735-2.125,1.295-2.878s1.235-1.312,2.024-1.674s1.666-0.543,2.63-0.543
			c1.12,0,2.097,0.223,2.925,0.667c0.833,0.445,1.528,1.074,2.088,1.887s0.978,1.787,1.254,2.92c0.275,1.135,0.413,2.39,0.413,3.767
			c0,1.599-0.152,2.98-0.456,4.146c-0.301,1.166-0.733,2.129-1.295,2.887C4.101,56.218,3.426,56.778,2.635,57.142z M-4.243,47.659
			c-0.005,0.284-0.007,0.568-0.007,0.854c0,1.166,0.096,2.192,0.288,3.078c0.193,0.887,0.469,1.631,0.827,2.231
			s0.793,1.054,1.302,1.356c0.51,0.303,1.077,0.455,1.701,0.455c0.469,0,0.891-0.078,1.268-0.234
			c0.376-0.156,0.712-0.374,1.005-0.654c0.293-0.28,0.547-0.613,0.757-0.999s0.385-0.812,0.524-1.28l-7.616-5.633
			C-4.223,47.099-4.24,47.374-4.243,47.659z M3.697,45.269c-0.194-0.885-0.469-1.627-0.827-2.224s-0.793-1.046-1.3-1.35
			c-0.51-0.303-1.077-0.454-1.702-0.454c-0.486,0-0.921,0.08-1.302,0.24c-0.38,0.161-0.721,0.387-1.019,0.675
			c-0.298,0.29-0.553,0.636-0.764,1.04c-0.211,0.404-0.385,0.845-0.524,1.322l7.616,5.661c0.027-0.294,0.053-0.595,0.075-0.901
			c0.024-0.309,0.034-0.619,0.034-0.931C3.984,47.181,3.889,46.155,3.697,45.269z"/>
		<polygon points="14.673,54.808 14.673,41.668 10.046,41.668 10.046,39.437 21.353,39.437 21.353,41.668 17.332,41.668 
			17.332,57.521 15.209,57.521 9.48,54.504 10.362,52.466 		"/>
		<path d="M25.869,52.466l0.557,0.301c-0.394,0.629-0.786,1.254-1.177,1.875l-0.26-0.138L25.869,52.466z"/>
		<path d="M25.554,41.668v-2.231h8.967c-0.44,0.746-0.879,1.49-1.32,2.231h-0.36v0.605c-0.886,1.483-1.771,2.953-2.658,4.409v-5.015
			H25.554z"/>
		<path d="M-40.679,5.589v2.23h-4.021v13.86c-0.908-1.725-1.795-3.448-2.658-5.166V7.819h-4.189
			c-0.147-0.323-0.293-0.645-0.438-0.967V5.589H-40.679z"/>
		<polygon points="-31.852,20.958 -31.852,7.819 -36.479,7.819 -36.479,5.589 -25.171,5.589 -25.171,7.819 -29.194,7.819 
			-29.194,23.672 -31.314,23.672 -37.043,20.656 -36.161,18.617 		"/>
		<polygon points="-13.686,23.672 -15.806,23.672 -21.535,20.656 -20.654,18.617 -16.344,20.958 -16.344,7.819 -20.971,7.819 
			-20.971,5.589 -9.664,5.589 -9.664,7.819 -13.686,7.819 		"/>
		<path d="M4.659,21.612c-0.558,0.759-1.233,1.317-2.024,1.681c-0.788,0.362-1.665,0.544-2.631,0.544
			c-1.109,0-2.083-0.223-2.918-0.668c-0.836-0.445-1.531-1.073-2.088-1.887c-0.555-0.812-0.973-1.788-1.252-2.927
			c-0.281-1.139-0.421-2.396-0.421-3.773c0-1.598,0.152-2.979,0.456-4.146c0.303-1.167,0.735-2.126,1.295-2.879
			S-3.69,6.247-2.9,5.884c0.79-0.361,1.666-0.544,2.63-0.544c1.12,0,2.097,0.224,2.925,0.669c0.833,0.444,1.528,1.074,2.088,1.886
			c0.56,0.813,0.978,1.786,1.254,2.92c0.275,1.134,0.413,2.391,0.413,3.768c0,1.598-0.152,2.979-0.456,4.146
			C5.653,19.894,5.221,20.855,4.659,21.612z M-4.243,13.811c-0.005,0.285-0.007,0.569-0.007,0.854c0,1.166,0.096,2.192,0.288,3.079
			c0.193,0.885,0.469,1.629,0.827,2.231c0.358,0.6,0.793,1.053,1.302,1.356c0.51,0.303,1.077,0.454,1.701,0.454
			c0.469,0,0.891-0.078,1.268-0.234c0.376-0.155,0.712-0.374,1.005-0.654c0.293-0.28,0.547-0.613,0.757-0.998
			c0.21-0.386,0.385-0.813,0.524-1.281l-7.616-5.633C-4.223,13.25-4.24,13.526-4.243,13.811z M3.697,11.42
			C3.503,10.535,3.228,9.793,2.87,9.197c-0.358-0.597-0.793-1.048-1.3-1.35c-0.51-0.304-1.077-0.455-1.702-0.455
			c-0.486,0-0.921,0.08-1.302,0.242c-0.38,0.159-0.721,0.385-1.019,0.674c-0.298,0.289-0.553,0.636-0.764,1.039
			c-0.211,0.404-0.385,0.846-0.524,1.322l7.616,5.661c0.027-0.293,0.053-0.595,0.075-0.901c0.024-0.309,0.034-0.618,0.034-0.93
			C3.984,13.333,3.889,12.307,3.697,11.42z"/>
		<polygon points="14.673,20.958 14.673,7.819 10.046,7.819 10.046,5.589 21.353,5.589 21.353,7.819 17.332,7.819 17.332,23.672 
			15.209,23.672 9.48,20.656 10.362,18.617 		"/>
		<path d="M26.091,7.558c0.56-0.753,1.234-1.311,2.023-1.674c0.79-0.361,1.667-0.544,2.631-0.544c1.12,0,2.097,0.224,2.928,0.669
			c0.832,0.444,1.525,1.074,2.086,1.886c0.56,0.813,0.978,1.786,1.254,2.92c0.275,1.134,0.412,2.391,0.412,3.768
			c0,1.598-0.15,2.979-0.454,4.146c-0.303,1.166-0.734,2.128-1.294,2.885c-0.561,0.759-1.235,1.317-2.025,1.681
			c-0.789,0.362-1.666,0.544-2.631,0.544c-1.111,0-2.084-0.223-2.92-0.668c-0.834-0.445-1.529-1.073-2.086-1.887
			c-0.555-0.812-0.975-1.788-1.252-2.927c-0.281-1.139-0.421-2.396-0.421-3.773c0-1.598,0.15-2.979,0.454-4.146
			C25.099,9.27,25.53,8.311,26.091,7.558z M34.968,15.43c0.023-0.309,0.033-0.618,0.033-0.93c0-1.167-0.096-2.193-0.289-3.08
			c-0.191-0.885-0.468-1.627-0.825-2.223c-0.358-0.597-0.793-1.048-1.302-1.35c-0.511-0.304-1.078-0.455-1.701-0.455
			c-0.486,0-0.921,0.08-1.301,0.242c-0.383,0.159-0.722,0.385-1.02,0.674c-0.3,0.289-0.553,0.636-0.766,1.039
			c-0.211,0.404-0.385,0.846-0.522,1.322l7.616,5.661C34.919,16.038,34.944,15.736,34.968,15.43z M27.055,17.743
			c0.193,0.885,0.47,1.629,0.827,2.231c0.357,0.6,0.791,1.053,1.3,1.356c0.511,0.303,1.077,0.454,1.702,0.454
			c0.468,0,0.891-0.078,1.268-0.234c0.375-0.155,0.711-0.374,1.004-0.654c0.295-0.28,0.548-0.613,0.759-0.998
			c0.21-0.386,0.386-0.813,0.522-1.281l-7.617-5.633c-0.027,0.266-0.042,0.542-0.046,0.826c-0.007,0.285-0.009,0.569-0.009,0.854
			C26.765,15.83,26.862,16.856,27.055,17.743z"/>
		<path d="M41.378,18.617l3.631,1.973c-0.33,0.636-0.668,1.274-1.006,1.911l-3.506-1.845L41.378,18.617z"/>
		<path d="M41.062,7.819v-2.23h11.231c-0.33,0.74-0.668,1.484-1.01,2.23h-2.936v6.174c-0.859,1.753-1.747,3.514-2.658,5.279V7.819
			H41.062z"/>
		<path d="M-57.289-25.953c0.56,0.813,0.978,1.786,1.254,2.92c0.274,1.134,0.413,2.391,0.413,3.768c0,1.597-0.152,2.98-0.456,4.146
			c-0.303,1.166-0.734,2.129-1.293,2.884c-0.437,0.593-0.945,1.057-1.521,1.408c-0.257-0.82-0.497-1.629-0.726-2.429
			c0.176-0.213,0.343-0.436,0.483-0.692c0.212-0.387,0.385-0.812,0.524-1.281l-1.906-1.409c-0.258-1.067-0.483-2.111-0.68-3.136
			l3.04,2.259c0.027-0.293,0.053-0.595,0.075-0.902c0.024-0.309,0.036-0.617,0.036-0.929c0-1.168-0.098-2.193-0.291-3.079
			c-0.192-0.888-0.468-1.627-0.826-2.224c-0.358-0.598-0.792-1.048-1.302-1.35c-0.479-0.287-1.014-0.431-1.596-0.448
			c-0.032-0.609-0.048-1.206-0.048-1.791c0-0.086,0.005-0.172,0.005-0.258c1.035,0.024,1.947,0.24,2.727,0.658
			C-58.544-27.394-57.849-26.764-57.289-25.953z"/>
		<path d="M-41.864-12.236c-0.56,0.761-1.235,1.318-2.024,1.682s-1.667,0.545-2.631,0.545c-1.11,0-2.084-0.223-2.918-0.668
			c-0.835-0.445-1.531-1.075-2.087-1.888c-0.555-0.812-0.975-1.788-1.252-2.927c-0.281-1.139-0.421-2.396-0.421-3.773
			c0-1.598,0.151-2.979,0.456-4.146c0.301-1.166,0.733-2.125,1.293-2.879c0.56-0.752,1.235-1.31,2.026-1.673
			c0.788-0.361,1.665-0.543,2.629-0.543c1.122,0,2.096,0.223,2.927,0.668c0.832,0.445,1.528,1.075,2.086,1.886
			c0.562,0.813,0.979,1.786,1.254,2.92c0.275,1.134,0.414,2.391,0.414,3.768c0,1.597-0.152,2.98-0.455,4.146
			C-40.873-13.954-41.304-12.991-41.864-12.236z M-50.767-20.036c-0.007,0.284-0.008,0.568-0.008,0.854
			c0,1.164,0.098,2.191,0.289,3.079c0.194,0.884,0.47,1.627,0.828,2.229c0.358,0.602,0.793,1.054,1.3,1.356
			c0.51,0.304,1.077,0.456,1.703,0.456c0.467,0,0.891-0.079,1.267-0.236c0.377-0.154,0.711-0.373,1.005-0.654
			c0.293-0.279,0.546-0.611,0.757-0.997c0.211-0.387,0.386-0.812,0.522-1.281l-7.614-5.633
			C-50.747-20.598-50.764-20.322-50.767-20.036z M-42.829-22.427c-0.192-0.888-0.467-1.627-0.826-2.224
			c-0.358-0.598-0.793-1.048-1.302-1.35c-0.51-0.305-1.077-0.455-1.7-0.455c-0.487,0-0.922,0.079-1.302,0.241
			c-0.382,0.159-0.721,0.386-1.019,0.673c-0.3,0.292-0.553,0.638-0.766,1.042c-0.211,0.404-0.385,0.844-0.522,1.322l7.616,5.66
			c0.028-0.293,0.053-0.595,0.076-0.902c0.024-0.309,0.034-0.617,0.034-0.929C-42.539-20.516-42.635-21.541-42.829-22.427z"/>
		<polygon points="-31.852,-12.889 -31.852,-26.027 -36.479,-26.027 -36.479,-28.261 -25.171,-28.261 -25.171,-26.027 
			-29.194,-26.027 -29.194,-10.176 -31.314,-10.176 -37.043,-13.192 -36.161,-15.23 		"/>
		<polygon points="-13.686,-10.176 -15.806,-10.176 -21.535,-13.192 -20.654,-15.23 -16.344,-12.889 -16.344,-26.027 
			-20.971,-26.027 -20.971,-28.261 -9.664,-28.261 -9.664,-26.027 -13.686,-26.027 		"/>
		<path d="M4.659-12.236c-0.558,0.761-1.233,1.318-2.024,1.682C1.847-10.191,0.97-10.01,0.004-10.01
			c-1.109,0-2.083-0.223-2.918-0.668c-0.836-0.445-1.531-1.075-2.088-1.888c-0.555-0.812-0.973-1.788-1.252-2.927
			c-0.281-1.139-0.421-2.396-0.421-3.773c0-1.598,0.152-2.979,0.456-4.146c0.303-1.166,0.735-2.125,1.295-2.879
			c0.56-0.752,1.235-1.31,2.024-1.673c0.79-0.361,1.666-0.543,2.63-0.543c1.12,0,2.097,0.223,2.925,0.668
			c0.833,0.445,1.528,1.075,2.088,1.886c0.56,0.813,0.978,1.786,1.254,2.92c0.275,1.134,0.413,2.391,0.413,3.768
			c0,1.597-0.152,2.98-0.456,4.146C5.653-13.954,5.221-12.991,4.659-12.236z M-4.243-20.036c-0.005,0.284-0.007,0.568-0.007,0.854
			c0,1.164,0.096,2.191,0.288,3.079c0.193,0.884,0.469,1.627,0.827,2.229c0.358,0.602,0.793,1.054,1.302,1.356
			c0.51,0.304,1.077,0.456,1.701,0.456c0.469,0,0.891-0.079,1.268-0.236c0.376-0.154,0.712-0.373,1.005-0.654
			c0.293-0.279,0.547-0.611,0.757-0.997c0.21-0.387,0.385-0.812,0.524-1.281l-7.616-5.633C-4.223-20.598-4.24-20.322-4.243-20.036z
			 M3.697-22.427c-0.194-0.888-0.469-1.627-0.827-2.224c-0.358-0.598-0.793-1.048-1.3-1.35c-0.51-0.305-1.077-0.455-1.702-0.455
			c-0.486,0-0.921,0.079-1.302,0.241c-0.38,0.159-0.721,0.386-1.019,0.673c-0.298,0.292-0.553,0.638-0.764,1.042
			c-0.211,0.404-0.385,0.844-0.524,1.322l7.616,5.66c0.027-0.293,0.053-0.595,0.075-0.902c0.024-0.309,0.034-0.617,0.034-0.929
			C3.984-20.516,3.889-21.541,3.697-22.427z"/>
		<polygon points="14.673,-12.889 14.673,-26.027 10.046,-26.027 10.046,-28.261 21.353,-28.261 21.353,-26.027 17.332,-26.027 
			17.332,-10.176 15.209,-10.176 9.48,-13.192 10.362,-15.23 		"/>
		<path d="M26.091-26.291c0.56-0.752,1.234-1.31,2.023-1.673c0.79-0.361,1.667-0.543,2.631-0.543c1.12,0,2.097,0.223,2.928,0.668
			c0.832,0.445,1.525,1.075,2.086,1.886c0.56,0.813,0.978,1.786,1.254,2.92c0.275,1.134,0.412,2.391,0.412,3.768
			c0,1.597-0.15,2.98-0.454,4.146c-0.303,1.166-0.734,2.129-1.294,2.884c-0.561,0.761-1.235,1.318-2.025,1.682
			c-0.789,0.363-1.666,0.545-2.631,0.545c-1.111,0-2.084-0.223-2.92-0.668c-0.834-0.445-1.529-1.075-2.086-1.888
			c-0.555-0.812-0.975-1.788-1.252-2.927c-0.281-1.139-0.421-2.396-0.421-3.773c0-1.598,0.15-2.979,0.454-4.146
			C25.099-24.578,25.53-25.537,26.091-26.291z M34.968-18.419c0.023-0.309,0.033-0.617,0.033-0.929c0-1.168-0.096-2.193-0.289-3.079
			c-0.191-0.888-0.468-1.627-0.825-2.224c-0.358-0.598-0.793-1.048-1.302-1.35c-0.511-0.305-1.078-0.455-1.701-0.455
			c-0.486,0-0.921,0.079-1.301,0.241c-0.383,0.159-0.722,0.386-1.02,0.673c-0.3,0.292-0.553,0.638-0.766,1.042
			c-0.211,0.404-0.385,0.844-0.522,1.322l7.616,5.66C34.919-17.81,34.944-18.111,34.968-18.419z M27.055-16.104
			c0.193,0.884,0.47,1.627,0.827,2.229c0.357,0.602,0.791,1.054,1.3,1.356c0.511,0.304,1.077,0.456,1.702,0.456
			c0.468,0,0.891-0.079,1.268-0.236c0.375-0.154,0.711-0.373,1.004-0.654c0.295-0.279,0.548-0.611,0.759-0.997
			c0.21-0.387,0.386-0.812,0.522-1.281l-7.617-5.633c-0.027,0.266-0.042,0.541-0.046,0.827c-0.007,0.284-0.009,0.568-0.009,0.854
			C26.765-18.019,26.862-16.991,27.055-16.104z"/>
		<path d="M41.599-26.291c0.561-0.752,1.234-1.31,2.024-1.673c0.79-0.361,1.667-0.543,2.631-0.543c1.12,0,2.097,0.223,2.925,0.668
			c0.833,0.445,1.528,1.075,2.088,1.886c0.561,0.813,0.979,1.786,1.254,2.92s0.412,2.391,0.412,3.768c0,1.597-0.15,2.98-0.453,4.146
			c-0.303,1.166-0.734,2.129-1.295,2.884c-0.561,0.761-1.234,1.318-2.025,1.682c-0.79,0.363-1.667,0.545-2.631,0.545
			c-1.111,0-2.084-0.223-2.92-0.668s-1.531-1.075-2.086-1.888c-0.556-0.812-0.975-1.788-1.254-2.927
			c-0.28-1.139-0.419-2.396-0.419-3.773c0-1.598,0.15-2.979,0.453-4.146C40.606-24.578,41.038-25.537,41.599-26.291z M50.474-18.419
			c0.023-0.309,0.035-0.617,0.035-0.929c0-1.168-0.098-2.193-0.289-3.079c-0.193-0.888-0.469-1.627-0.825-2.224
			c-0.36-0.598-0.793-1.048-1.303-1.35c-0.51-0.305-1.076-0.455-1.702-0.455c-0.486,0-0.919,0.079-1.3,0.241
			c-0.382,0.159-0.723,0.386-1.02,0.673c-0.299,0.292-0.555,0.638-0.766,1.042c-0.21,0.404-0.385,0.844-0.521,1.322l7.614,5.66
			C50.427-17.81,50.453-18.111,50.474-18.419z M42.563-16.104c0.193,0.884,0.467,1.627,0.825,2.229
			c0.358,0.602,0.793,1.054,1.302,1.356c0.51,0.304,1.077,0.456,1.7,0.456c0.47,0,0.891-0.079,1.268-0.236
			c0.377-0.154,0.712-0.373,1.005-0.654c0.295-0.279,0.547-0.611,0.76-0.997c0.209-0.387,0.385-0.812,0.522-1.281l-7.617-5.633
			c-0.027,0.266-0.044,0.541-0.048,0.827c-0.005,0.284-0.007,0.568-0.007,0.854C42.273-18.019,42.369-16.991,42.563-16.104z"/>
		<path d="M56.57-26.027v-2.233h5.273c0,0.007,0,0.014,0,0.021c0,2.177-0.227,4.527-0.646,7.019v-4.807H56.57z"/>
		<path d="M56.886-15.23l2.623,1.422c-0.197,0.706-0.404,1.415-0.625,2.132l-2.879-1.516L56.886-15.23z"/>
		<path d="M-60.298-44.024c0.03-0.133,0.056-0.271,0.089-0.407v0.407H-60.298z"/>
		<polygon points="-44.701,-44.024 -46.823,-44.024 -52.552,-47.04 -51.669,-49.078 -47.358,-46.737 -47.358,-59.877 
			-51.986,-59.877 -51.986,-62.106 -40.679,-62.106 -40.679,-59.877 -44.701,-59.877 		"/>
		<path d="M-26.356-46.083c-0.56,0.758-1.235,1.317-2.024,1.679c-0.79,0.363-1.667,0.545-2.63,0.545
			c-1.112,0-2.084-0.223-2.92-0.666c-0.836-0.447-1.531-1.074-2.086-1.89c-0.555-0.81-0.975-1.786-1.254-2.925
			c-0.281-1.138-0.419-2.396-0.419-3.775c0-1.596,0.15-2.979,0.454-4.145c0.303-1.165,0.735-2.125,1.295-2.877
			c0.56-0.754,1.235-1.312,2.024-1.675s1.667-0.543,2.631-0.543c1.12,0,2.096,0.223,2.927,0.668
			c0.831,0.443,1.526,1.073,2.086,1.885c0.56,0.815,0.978,1.787,1.253,2.921c0.276,1.135,0.413,2.389,0.413,3.766
			c0,1.6-0.15,2.98-0.454,4.148C-25.364-47.802-25.796-46.84-26.356-46.083z M-35.26-53.886c-0.005,0.284-0.007,0.57-0.007,0.854
			c0,1.167,0.096,2.19,0.29,3.078c0.193,0.887,0.468,1.63,0.827,2.233c0.358,0.6,0.791,1.052,1.3,1.354
			c0.511,0.303,1.077,0.454,1.701,0.454c0.469,0,0.893-0.077,1.268-0.233c0.376-0.157,0.712-0.375,1.007-0.654
			c0.292-0.28,0.544-0.613,0.757-0.998c0.21-0.386,0.385-0.813,0.522-1.281l-7.617-5.633C-35.24-54.444-35.257-54.17-35.26-53.886z
			 M-27.32-56.274c-0.191-0.886-0.467-1.628-0.825-2.226c-0.36-0.596-0.793-1.044-1.302-1.35c-0.511-0.301-1.077-0.453-1.703-0.453
			c-0.486,0-0.919,0.08-1.3,0.241c-0.382,0.161-0.721,0.387-1.019,0.675c-0.3,0.289-0.555,0.636-0.766,1.039
			c-0.21,0.404-0.385,0.845-0.522,1.322l7.616,5.661c0.028-0.295,0.053-0.597,0.076-0.901c0.022-0.308,0.034-0.618,0.034-0.932
			C-27.031-54.362-27.126-55.39-27.32-56.274z"/>
		<polygon points="-13.686,-44.024 -15.806,-44.024 -21.535,-47.04 -20.654,-49.078 -16.344,-46.737 -16.344,-59.877 
			-20.971,-59.877 -20.971,-62.106 -9.664,-62.106 -9.664,-59.877 -13.686,-59.877 		"/>
		<polygon points="1.823,-44.024 -0.297,-44.024 -6.028,-47.04 -5.146,-49.078 -0.835,-46.737 -0.835,-59.877 -5.463,-59.877 
			-5.463,-62.106 5.845,-62.106 5.845,-59.877 1.823,-59.877 		"/>
		<polygon points="14.673,-46.737 14.673,-59.877 10.046,-59.877 10.046,-62.106 21.353,-62.106 21.353,-59.877 17.332,-59.877 
			17.332,-44.024 15.209,-44.024 9.48,-47.04 10.362,-49.078 		"/>
		<path d="M26.091-60.137c0.56-0.754,1.234-1.312,2.023-1.675c0.79-0.362,1.667-0.543,2.631-0.543c1.12,0,2.097,0.223,2.928,0.668
			c0.832,0.443,1.525,1.073,2.086,1.885c0.56,0.815,0.978,1.787,1.254,2.921c0.275,1.135,0.412,2.389,0.412,3.766
			c0,1.6-0.15,2.98-0.454,4.148c-0.303,1.165-0.734,2.127-1.294,2.884c-0.561,0.758-1.235,1.317-2.025,1.679
			c-0.789,0.363-1.666,0.545-2.631,0.545c-1.111,0-2.084-0.223-2.92-0.666c-0.834-0.447-1.529-1.074-2.086-1.89
			c-0.555-0.81-0.975-1.786-1.252-2.925c-0.281-1.138-0.421-2.396-0.421-3.775c0-1.596,0.15-2.979,0.454-4.145
			C25.099-58.425,25.53-59.385,26.091-60.137z M34.968-52.266c0.023-0.308,0.033-0.618,0.033-0.932c0-1.165-0.096-2.192-0.289-3.077
			c-0.191-0.886-0.468-1.628-0.825-2.226c-0.358-0.596-0.793-1.044-1.302-1.35c-0.511-0.301-1.078-0.453-1.701-0.453
			c-0.486,0-0.921,0.08-1.301,0.241c-0.383,0.161-0.722,0.387-1.02,0.675c-0.3,0.289-0.553,0.636-0.766,1.039
			c-0.211,0.404-0.385,0.845-0.522,1.322l7.616,5.661C34.919-51.659,34.944-51.961,34.968-52.266z M27.055-49.953
			c0.193,0.887,0.47,1.63,0.827,2.233c0.357,0.6,0.791,1.052,1.3,1.354c0.511,0.303,1.077,0.454,1.702,0.454
			c0.468,0,0.891-0.077,1.268-0.233c0.375-0.157,0.711-0.375,1.004-0.654c0.295-0.28,0.548-0.613,0.759-0.998
			c0.21-0.386,0.386-0.813,0.522-1.281l-7.617-5.633c-0.027,0.267-0.042,0.541-0.046,0.825c-0.007,0.284-0.009,0.57-0.009,0.854
			C26.765-51.864,26.862-50.841,27.055-49.953z"/>
		<path d="M41.599-60.137c0.561-0.754,1.234-1.312,2.024-1.675s1.667-0.543,2.631-0.543c1.12,0,2.097,0.223,2.925,0.668
			c0.833,0.443,1.528,1.073,2.088,1.885c0.561,0.815,0.979,1.787,1.254,2.921c0.275,1.135,0.412,2.389,0.412,3.766
			c0,1.6-0.15,2.98-0.453,4.148c-0.303,1.165-0.734,2.127-1.295,2.884c-0.561,0.758-1.234,1.317-2.025,1.679
			c-0.79,0.363-1.667,0.545-2.631,0.545c-1.111,0-2.084-0.223-2.92-0.666c-0.836-0.447-1.531-1.074-2.086-1.89
			c-0.556-0.81-0.975-1.786-1.254-2.925c-0.28-1.138-0.419-2.396-0.419-3.775c0-1.596,0.15-2.979,0.453-4.145
			C40.606-58.425,41.038-59.385,41.599-60.137z M50.474-52.266c0.023-0.308,0.035-0.618,0.035-0.932
			c0-1.165-0.098-2.192-0.289-3.077c-0.193-0.886-0.469-1.628-0.825-2.226c-0.36-0.596-0.793-1.044-1.303-1.35
			c-0.51-0.301-1.076-0.453-1.702-0.453c-0.486,0-0.919,0.08-1.3,0.241c-0.382,0.161-0.723,0.387-1.02,0.675
			c-0.299,0.289-0.555,0.636-0.766,1.039c-0.21,0.404-0.385,0.845-0.521,1.322l7.614,5.661
			C50.427-51.659,50.453-51.961,50.474-52.266z M42.563-49.953c0.193,0.887,0.467,1.63,0.825,2.233
			c0.358,0.6,0.793,1.052,1.302,1.354c0.51,0.303,1.077,0.454,1.7,0.454c0.47,0,0.891-0.077,1.268-0.233
			c0.377-0.157,0.712-0.375,1.005-0.654c0.295-0.28,0.547-0.613,0.76-0.998c0.209-0.386,0.385-0.813,0.522-1.281l-7.617-5.633
			c-0.027,0.267-0.044,0.541-0.048,0.825c-0.005,0.284-0.007,0.57-0.007,0.854C42.273-51.864,42.369-50.841,42.563-49.953z"/>
		<path d="M56.886-49.078l2.127,1.156c0.281,0.948,0.537,1.908,0.777,2.875l-3.785-1.993L56.886-49.078z"/>
		<path d="M-25.061-82.816c-0.303,1.168-0.735,2.131-1.295,2.884c-0.56,0.761-1.235,1.319-2.024,1.682
			c-0.79,0.363-1.667,0.545-2.63,0.545c-1.112,0-2.084-0.223-2.92-0.668s-1.531-1.075-2.086-1.887
			c-0.228-0.333-0.427-0.703-0.608-1.09c0.637-0.493,1.277-0.986,1.934-1.452c0.154,0.455,0.329,0.877,0.541,1.233
			c0.358,0.603,0.791,1.055,1.3,1.356c0.511,0.305,1.077,0.455,1.701,0.455c0.469,0,0.893-0.079,1.268-0.236
			c0.376-0.154,0.712-0.373,1.007-0.654c0.292-0.277,0.544-0.609,0.757-0.997c0.21-0.387,0.385-0.812,0.522-1.28l-3.242-2.398
			c0.657-0.397,1.318-0.784,1.99-1.157l1.707,1.271c0.028-0.295,0.053-0.596,0.076-0.904c0.022-0.309,0.034-0.616,0.034-0.929
			c0-0.146-0.015-0.273-0.019-0.414c0.776-0.397,1.565-0.771,2.357-1.134c0.048,0.527,0.085,1.062,0.085,1.631
			C-24.607-85.365-24.758-83.981-25.061-82.816z"/>
		<path d="M-9.099-86.961c0,1.596-0.151,2.979-0.454,4.145c-0.303,1.168-0.734,2.131-1.295,2.884
			c-0.56,0.761-1.234,1.319-2.024,1.682c-0.789,0.363-1.666,0.545-2.63,0.545c-1.112,0-2.084-0.223-2.92-0.668
			s-1.531-1.075-2.088-1.887c-0.555-0.812-0.973-1.788-1.252-2.926c-0.281-1.141-0.419-2.397-0.419-3.774
			c0-1.021,0.069-1.942,0.192-2.788c0.935-0.374,1.882-0.724,2.84-1.049l7.519,5.587c0.027-0.295,0.051-0.596,0.074-0.904
			c0.024-0.309,0.036-0.616,0.036-0.929c0-1.168-0.096-2.191-0.289-3.079c-0.194-0.887-0.468-1.627-0.827-2.223
			c-0.052-0.086-0.106-0.161-0.161-0.24c0.794-0.175,1.596-0.321,2.401-0.466c0.378,0.682,0.675,1.452,0.887,2.322
			C-9.236-89.596-9.099-88.338-9.099-86.961z M-19.704-88.558c-0.027,0.264-0.044,0.541-0.048,0.825
			c-0.005,0.285-0.007,0.569-0.007,0.854c0,1.168,0.096,2.192,0.29,3.079c0.192,0.884,0.468,1.627,0.826,2.23
			c0.358,0.603,0.793,1.055,1.302,1.356c0.51,0.305,1.077,0.455,1.701,0.455c0.469,0,0.89-0.079,1.267-0.236
			c0.377-0.154,0.713-0.373,1.005-0.654c0.294-0.277,0.546-0.609,0.757-0.997c0.212-0.387,0.387-0.812,0.524-1.28L-19.704-88.558z"
			/>
		<path d="M1.823-77.87h-2.121l-5.73-3.018l0.882-2.038l4.311,2.343v-13.14h-4.42c1.692-0.147,3.396-0.243,5.125-0.243
			c1.725,0,3.432,0.096,5.123,0.243H1.823V-77.87z"/>
		<path d="M21.462-82.816c-0.303,1.168-0.734,2.131-1.294,2.884c-0.561,0.761-1.235,1.319-2.024,1.682
			c-0.79,0.363-1.667,0.545-2.631,0.545c-1.11,0-2.084-0.223-2.92-0.668c-0.834-0.445-1.53-1.075-2.086-1.887
			c-0.555-0.812-0.973-1.788-1.252-2.926c-0.281-1.141-0.421-2.397-0.421-3.774c0-1.597,0.152-2.98,0.454-4.146
			c0.193-0.743,0.445-1.391,0.741-1.966c0.839,0.147,1.677,0.302,2.506,0.486c-0.085,0.127-0.171,0.25-0.243,0.391
			c-0.212,0.404-0.387,0.846-0.524,1.322l7.617,5.662c0.027-0.295,0.053-0.596,0.075-0.904c0.023-0.309,0.034-0.616,0.034-0.929
			c0-1.168-0.096-2.191-0.289-3.079c-0.047-0.216-0.098-0.421-0.154-0.616c0.88,0.301,1.755,0.623,2.62,0.969
			c0.149,0.877,0.248,1.799,0.248,2.81C21.918-85.365,21.766-83.981,21.462-82.816z M11.313-88.558
			c-0.029,0.264-0.044,0.541-0.048,0.825c-0.005,0.285-0.008,0.569-0.008,0.854c0,1.168,0.098,2.192,0.289,3.079
			c0.194,0.884,0.469,1.627,0.827,2.23c0.358,0.603,0.792,1.055,1.302,1.356c0.511,0.305,1.076,0.455,1.701,0.455
			c0.468,0,0.891-0.079,1.268-0.236c0.375-0.154,0.71-0.373,1.005-0.654c0.293-0.277,0.546-0.609,0.757-0.997
			c0.211-0.387,0.386-0.812,0.524-1.28L11.313-88.558z"/>
		<path d="M30.718-77.87l-5.729-3.018l0.88-2.038l4.312,2.343v-4.98c0.901,0.537,1.786,1.1,2.658,1.682v6.012H30.718z"/>
	</g>
</symbol>
<path fill="#ACC1D1" stroke="#000000" stroke-width="1.978" stroke-miterlimit="10" d="M744.09,195.895
	c0-26.762-21.575-48.475-48.28-48.716c-5.461-42.412-41.702-75.182-85.6-75.182c-36.654,0-67.969,22.849-80.484,55.08
	c-5.273-1.518-10.846-2.333-16.608-2.333c-32.255,0-58.557,25.48-59.881,57.411c-3.312-1.153-6.865-1.788-10.569-1.788
	c-17.744,0-32.127,14.384-32.127,32.127c0,17.744,14.384,32.128,32.127,32.128h253.855v-0.03
	C722.896,243.974,744.09,222.417,744.09,195.895z"/>
<path fill="#91A8B6" stroke="#000000" stroke-width="1.6614" stroke-miterlimit="10" d="M468.605,117.383
	c0-22.478-18.121-40.715-40.552-40.918c-4.585-35.623-35.025-63.147-71.896-63.147c-30.787,0-57.088,19.192-67.601,46.263
	c-4.43-1.275-9.11-1.959-13.95-1.959c-27.092,0-49.184,21.401-50.296,48.221c-2.781-0.968-5.766-1.501-8.876-1.501
	c-14.903,0-26.984,12.081-26.984,26.985c0,14.903,12.081,26.984,26.984,26.984h213.22v-0.024
	C450.804,157.767,468.605,139.659,468.605,117.383z"/>
<path fill="#ACC1D1" stroke="#000000" stroke-width="2.1788" stroke-miterlimit="10" d="M368.509,211.007
	c0-29.479-23.766-53.397-53.183-53.663c-6.015-46.718-45.936-82.816-94.292-82.816c-40.375,0-74.87,25.169-88.656,60.672
	c-5.809-1.672-11.947-2.57-18.295-2.57c-35.531,0-64.503,28.067-65.962,63.24c-3.647-1.27-7.562-1.969-11.642-1.969
	c-19.545,0-35.39,15.844-35.39,35.39c0,19.545,15.845,35.39,35.39,35.39h279.633v-0.032
	C345.164,263.968,368.509,240.222,368.509,211.007z"/>
<path fill="#C7D9E5" stroke="#000000" stroke-width="3.3266" stroke-miterlimit="10" d="M691.024,210.036
	c0-45.008-36.286-81.525-81.198-81.931C600.642,56.776,539.691,1.663,465.863,1.663c-61.646,0-114.309,38.428-135.358,92.634
	c-8.87-2.553-18.241-3.924-27.933-3.924c-54.249,0-98.48,42.853-100.71,96.555c-5.568-1.939-11.544-3.006-17.773-3.006
	c-29.841,0-54.032,24.191-54.032,54.032s24.191,54.032,54.032,54.032h426.937v-0.049
	C655.38,290.897,691.024,254.642,691.024,210.036z"/>
<g id="upld-icon-big.psd">
	<defs>
		<rect id="SVGID_1_" x="352.052" y="114.013" width="128.875" height="128.875"/>
	</defs>
	<clipPath id="SVGID_2_">
		<use xlink:href="#SVGID_1_"  overflow="visible"/>
	</clipPath>
	<g id="Group_1" clip-path="url(#SVGID_2_)">
		<text transform="matrix(1.0009 0 0 1 354.5068 199.9492)" fill="#010101" font-family="'Helvetica'" font-size="94.0792">μ</text>
		<g id="Shape_1">
			<g>
				<polygon points="429.282,121.486 408.354,145.656 425.139,145.656 425.139,188.389 433.42,188.389 433.42,145.656 
					450.207,145.656 				"/>
			</g>
		</g>
		<g id="Shape_1_copy">
			<g>
				<polygon points="454.348,210.214 454.348,167.48 446.067,167.48 446.067,210.214 429.281,210.214 450.206,234.383 
					471.132,210.214 				"/>
			</g>
		</g>
	</g>
</g>
<use xlink:href="#bitdrop"  width="125.738" height="188.552" id="XMLID_1_" x="-62.868" y="-94.086" transform="matrix(1 0 0 -1 399.647 533.7256)" overflow="visible"/>
<text transform="matrix(1 0 0 1 334.9775 396.9253)" display="none"><tspan x="0" y="0" display="inline" font-family="'Consolas'" font-size="30">10</tspan><tspan x="-24.741" y="36" display="inline" font-family="'Consolas'" font-size="30">01011</tspan><tspan x="-41.235" y="72" display="inline" font-family="'Consolas'" font-size="30">1101011</tspan><tspan x="-16.494" y="108" display="inline" font-family="'Consolas'" font-size="30">0010</tspan></text>
<use xlink:href="#bitdrop"  width="125.738" height="188.552" x="-62.868" y="-94.086" transform="matrix(0.4742 0 0 -0.4742 500.4028 366.5488)" overflow="visible"/>
<use xlink:href="#bitdrop"  width="125.738" height="188.552" x="-62.868" y="-94.086" transform="matrix(0.6471 0 0 -0.6471 282.9629 407.6006)" overflow="visible"/>
<use xlink:href="#bitdrop"  width="125.738" height="188.552" x="-62.868" y="-94.086" transform="matrix(0.4872 0 0 -0.4872 154.2534 498.6729)" overflow="visible"/>
<use xlink:href="#bitdrop"  width="125.738" height="188.552" x="-62.868" y="-94.086" transform="matrix(0.7452 0 0 -0.7452 595.1343 436.7939)" overflow="visible"/>
</svg>
